{"title":"Big Mommas  Like Father Like Son 2011 TS XViD SAFCuk009 {DragonT","uid":6191882,"size":1543340718,"categoryP":"video","categoryS":"movies","magnet":"?xt=urn:btih:4623d4404eedc53577b003e2ec245c305e9c69bf&amp;dn=Big+Mommas++Like+Father+Like+Son+2011+TS+XViD+SAFCuk009+%7BDragonT&amp;tr=udp%3A%2F%2Ftracker.openbittorrent.com%3A80&amp;tr=udp%3A%2F%2Fopen.demonii.com%3A1337&amp;tr=udp%3A%2F%2Ftracker.coppersurfer.tk%3A6969&amp;tr=udp%3A%2F%2Fexodus.desync.com%3A6969","seeders":1,"leechers":0,"uploader":"SAFCukO09","files":3,"time":1298320679,"description":"Format : AVI\nFormat/Info : Audio Video Interleave\nFile size : 1.44 GiB\nDuration : 1h 39mn\nOverall bit rate : 2 064 Kbps\nWriting library : VirtualDub build 32839/release\n\nVideo\nID : 0\nFormat : MPEG-4 Visual\nFormat profile : Advanced Simple@L5\nFormat settings, BVOP : Yes\nFormat settings, QPel : No\nFormat settings, GMC : No warppoints\nFormat settings, Matrix : Custom\nCodec ID : XVID\nCodec ID/Hint : XviD\nDuration : 1h 39mn\nBit rate : 1 926 Kbps\nWidth : 656 pixels\nHeight : 368 pixels\nDisplay aspect ratio : 16:9\nFrame rate : 25.000 fps\nColor space : YUV\nChroma subsampling : 4:2:0\nBit depth : 8 bits\nScan type : Progressive\nBits/(Pixel*Frame) : 0.319\nStream size : 1.34 GiB (93%)\nWriting library : XviD 1.2.1 (UTC 2008-12-04)\n\nAudio\nID : 1\nFormat : MPEG Audio\nFormat version : Version 1\nFormat profile : Layer 3\nCodec ID : 55\nCodec ID/Hint : MP3\nDuration : 1h 39mn\nBit rate mode : Constant\nBit rate : 128 Kbps\nChannel(s) : 2 channels\nSampling rate : 44.1 KHz\nStream size : 91.3 MiB (6%)\nAlignment : Split accross interleaves\nInterleave, duration : 40 ms (1.00 video frame)\nInterleave, preload duration : 500 ms\n\n\n\n\n &lt;a href=&quot;\nhttp://www.imdb.com/title/tt1464174/&quot; rel=&quot;nofollow&quot; target=&quot;_NEW&quot;&gt;\nhttp://www.imdb.com/title/tt1464174/&lt;/a&gt;\n\n\n\n\n\n\n\nUsers: 3.0/10 (594 votes) 3 reviews | Critics: 10 reviews Metascore: 33/100 (based on 7 reviews from Metacritic.com)\n\nFBI agent Malcolm Turner and his stepson Trent go undercover at an all-girls performing arts school after Trent witnesses a murder.\nDirector:\nJohn Whitesell\nWriters:\nMatthew Fogel (screenplay), Don Rhymer (story), and 2 more credits Ã‚Â»\nStars:\nMartin Lawrence, Brandon T. Jackson and Jessica Lucas\n","torrent":{"xt":"urn:btih:4623d4404eedc53577b003e2ec245c305e9c69bf","amp;dn":"Big+Mommas++Like+Father+Like+Son+2011+TS+XViD+SAFCuk009+%7BDragonT","amp;tr":["udp%3A%2F%2Ftracker.openbittorrent.com%3A80","udp%3A%2F%2Fopen.demonii.com%3A1337","udp%3A%2F%2Ftracker.coppersurfer.tk%3A6969","udp%3A%2F%2Fexodus.desync.com%3A6969"],"infoHash":"4623d4404eedc53577b003e2ec245c305e9c69bf","infoHashBuffer":{"type":"Buffer","data":[70,35,212,64,78,237,197,53,119,176,3,226,236,36,92,48,94,156,105,191]},"announce":[],"urlList":[]}}